PathFileType	4	(X/Y/Z)	TVC_36_BWA_06_walk_RCNL2025.trc
DataRate	CameraRate	NumFrames	NumMarkers	Units	OrigDataRate	OrigDataStartFrame	OrigNumFrames
100	100	7	27	mm	100	1	714
Frame#	Time	R_Shoulder			L_Shoulder			C7			J_Notch			R_Elbow			L_Elbow			R_Wrist			L_Wrist			R_Asis			L_Asis			R_Psis			L_Psis			Sacral			Thoracic			Sternum			R_Thigh_Lateral			R_Knee_Lateral			R_Shank_Lateral			R_Ankle_Lateral			R_Heel			R_Toe			L_Thigh_Lateral			L_Knee_Lateral			L_Shank_Lateral			L_Ankle_Lateral			L_Heel			L_Toe		
		X1	Y1	Z1	X2	Y2	Z2	X3	Y3	Z3	X4	Y4	Z4	X5	Y5	Z5	X6	Y6	Z6	X7	Y7	Z7	X8	Y8	Z8	X9	Y9	Z9	X10	Y10	Z10	X11	Y11	Z11	X12	Y12	Z12	X13	Y13	Z13	X14	Y14	Z14	X15	Y15	Z15	X16	Y16	Z16	X17	Y17	Z17	X18	Y18	Z18	X19	Y19	Z19	X20	Y20	Z20	X21	Y21	Z21	X22	Y22	Z22	X23	Y23	Z23	X24	Y24	Z24	X25	Y25	Z25	X26	Y26	Z26	X27	Y27	Z27
1	0.00000000	-644.857056	1390.373413	472.287262	-714.616455	1359.431885	129.820145	-720.028503	1429.704468	311.803925	-565.817261	1305.052246	295.228851	-712.686646	1112.531494	581.061157	-744.614929	1071.239746	19.723015	-623.120605	907.048859	612.789490	-567.849457	960.339386	77.775852	-573.037170	892.167358	429.354767	-585.607544	908.555725	170.379669	-747.593567	896.119934	353.126038	-752.105347	892.313171	269.313141	-749.849457	894.216553	311.219589	-758.238831	1132.077026	315.875458	-522.124939	1158.333862	284.747833	-618.405273	617.035645	482.630432	-624.386597	438.246033	388.333649	-722.293701	250.982086	421.611023	-776.394958	70.156433	338.801331	-814.236450	59.516968	280.464508	-651.822754	43.073097	331.828339	-506.345154	701.046631	66.866753	-420.148346	519.868469	115.123352	-418.820190	320.113739	49.914078	-329.504669	121.149414	93.477249	-378.380280	95.610306	127.493843	-207.964325	120.247604	150.108017
2	0.01000000	-642.264954	1389.434570	472.108124	-711.367188	1358.831543	129.331192	-716.141602	1428.679199	310.933716	-562.576172	1304.107056	294.739899	-707.667725	1112.127808	581.988098	-740.921814	1070.973145	18.538034	-617.676575	906.492584	613.314880	-563.811981	960.533508	76.531635	-568.991150	891.637878	429.217987	-582.133484	907.851379	170.004822	-744.054749	895.861267	352.988983	-748.574341	891.865051	269.160004	-746.314545	893.863159	311.074493	-754.771484	1131.148926	315.437744	-518.720642	1157.534424	284.365723	-615.807190	616.460327	482.395905	-622.506348	437.688293	388.072205	-721.539001	250.928162	421.643738	-776.331787	70.126404	338.803040	-814.139404	59.624702	280.472687	-651.810913	42.853951	331.879425	-504.740967	699.547058	66.117424	-418.887909	518.266724	114.568092	-417.374451	318.591064	49.366909	-327.136780	119.625160	92.607025	-375.721527	94.405289	126.792542	-205.056702	118.846695	148.515213
3	0.02000000	-639.556641	1388.489746	471.875977	-708.036255	1358.185913	128.819931	-712.220093	1427.660889	310.058929	-559.226074	1303.197510	294.226440	-702.399109	1111.673462	582.633606	-737.103943	1070.606934	17.431814	-612.033264	905.973022	613.549438	-559.654877	960.690826	75.446526	-564.876648	891.063782	429.021790	-578.558472	907.108704	169.548004	-740.425354	895.592529	352.777832	-744.939392	891.425171	268.927612	-742.682373	893.508850	310.852722	-751.167969	1130.210693	314.955658	-515.180908	1156.762085	283.947113	-613.183105	615.892761	482.130646	-620.654236	437.129150	387.819977	-720.808105	250.885269	421.652405	-776.256836	70.106789	338.801117	-814.050476	59.731384	280.478729	-651.797729	42.642639	331.922821	-502.994476	698.018616	65.393631	-417.618896	516.548828	114.055992	-416.087616	316.942535	48.891472	-325.198608	117.907738	91.863617	-373.547180	93.024681	126.203957	-202.655167	117.092331	147.151031
4	0.03000000	-636.731995	1387.539185	471.590790	-704.623474	1357.494995	128.286270	-708.264099	1426.649536	309.179596	-555.767029	1302.323486	293.688477	-696.877747	1111.169922	582.998413	-733.161377	1070.141113	16.404373	-606.187164	905.492004	613.494354	-555.378357	960.811157	74.520229	-560.694824	890.444885	428.765778	-574.882385	906.327820	169.009369	-736.705383	895.313843	352.492493	-741.200500	890.993774	268.615997	-738.952942	893.153809	310.554245	-747.428345	1129.262695	314.429199	-511.505707	1156.016724	283.491913	-610.532471	615.332642	481.834930	-618.830017	436.568573	387.577179	-720.100281	250.853317	421.637634	-776.170898	70.097137	338.796051	-813.969543	59.837807	280.483276	-651.783264	42.440285	331.959229	-501.104980	696.460876	64.695564	-416.341095	514.714844	113.587280	-414.959106	315.168335	48.487827	-323.689423	115.997574	91.246994	-371.856537	91.468719	125.727982	-200.759033	114.985298	146.016083
5	0.04000000	-633.790894	1386.583496	471.252319	-701.128723	1356.758911	127.730103	-704.273621	1425.645874	308.295746	-552.198975	1301.485474	293.125885	-691.094971	1110.621826	583.084778	-729.094238	1069.575928	15.455749	-600.127411	905.053955	613.153107	-550.982819	960.893982	73.751904	-556.449402	889.780457	428.448639	-571.104919	905.509033	168.389359	-732.894775	895.025146	352.132874	-737.357849	890.571167	268.225189	-735.126312	892.798157	310.179031	-743.552734	1128.305420	313.858521	-507.695068	1155.298950	282.999939	-607.854309	614.779541	481.509460	-617.033020	436.006409	387.344299	-719.413269	250.831818	421.601196	-776.075806	70.096596	338.789185	-813.896423	59.945992	280.488281	-651.767822	42.249580	331.990479	-499.070801	694.872559	64.023872	-415.054047	512.764771	113.162521	-413.987457	313.268860	48.156109	-322.606995	113.896141	90.757202	-370.647552	89.738396	125.364426	-199.366119	112.528076	145.111877
6	0.05000000	-630.732910	1385.624146	470.860291	-697.551392	1355.978394	127.151115	-700.248779	1424.651001	307.407410	-548.521790	1300.684326	292.538574	-685.034607	1110.037109	582.897034	-724.902832	1068.911621	14.585975	-593.833496	904.666870	612.532166	-546.469116	960.938202	73.139931	-552.148315	889.068787	428.068146	-567.225891	904.653198	167.688828	-728.993591	894.726501	351.698700	-733.411804	890.158325	267.755310	-731.202698	892.442413	309.727005	-739.541138	1127.340332	313.243958	-503.749054	1154.609741	282.470947	-605.147644	614.232361	481.155823	-615.262207	435.442444	387.121857	-718.743164	250.819992	421.546509	-775.974182	70.104240	338.783295	-813.830750	60.059448	280.497437	-651.752014	42.074749	332.019958	-496.889099	693.251160	63.380096	-413.757111	510.698975	112.782646	-413.169739	311.245239	47.896477	-321.946106	111.606743	90.394402	-369.915314	87.836060	125.112961	-198.471359	109.726334	144.440857
7	0.06000000	-627.557678	1384.663818	470.414276	-693.890747	1355.154419	126.548767	-696.189209	1423.666870	306.514465	-544.735291	1299.921875	291.926208	-678.674316	1109.428589	582.441040	-720.587585	1068.148926	13.795032	-587.277008	904.342590	611.639832	-541.838531	960.941925	72.681698	-547.805176	888.307068	427.620758	-563.244934	903.761902	166.909286	-725.001892	894.418396	351.189728	-729.362976	889.757019	267.206726	-727.182434	892.087708	309.198227	-735.394043	1126.369995	312.585999	-499.667847	1153.950806	281.904388	-602.411987	613.689514	480.776031	-613.516235	434.876312	386.909973	-718.084778	250.817337	421.478821	-775.869873	70.119476	338.783264	-813.772034	60.183144	280.516510	-651.737122	41.920284	332.052795	-494.555817	691.593018	62.766888	-412.449707	508.518524	112.448898	-412.501007	309.099579	47.708950	-321.696991	109.135422	90.158745	-369.650421	85.765976	124.973038	-198.065247	106.590630	144.005997
